<svg id="b3d369f5-dc7b-45c8-9977-1ebdd5578e71" data-name="Layer 1" xmlns="http://www.w3.org/2000/svg" xmlns:xlink="http://www.w3.org/1999/xlink" viewBox="0 0 686.34 159.56"><defs><clipPath id="b239dc09-b8a5-41a0-99ae-835c20b2d1c6" transform="translate(-52.66 -226.51)"><rect x="52.66" y="226.51" width="686.34" height="159.56" style="fill:none"/></clipPath></defs><g style="clip-path:url(#b239dc09-b8a5-41a0-99ae-835c20b2d1c6)"><path d="M253.12,264.16c0-2.39.63-3.28,2.27-3.28h46.86c1.39,0,2.78.5,2.78,2,0,2.15-.76,4.67-1.51,4.67H260.7v34.61h38.77c1.39,0,2.91.51,2.91,2,0,2-1,4.68-1.77,4.68H260.7V345h41.55c1.39,0,2.78.5,2.78,2,0,2.15-.76,4.68-1.51,4.68H257.67c-1.9,0-4.55-.76-4.55-1.9Z" transform="translate(-52.66 -226.51)" style="fill:#fff"/><path d="M355.08,286.77c.89-3,2-3.41,5.69-3.41,1.51,0,2.14.63,2.14,1.64a7.9,7.9,0,0,1-.5,2l-20.59,63.28c-.64,2.27-1.39,2.9-2.52,2.9-1.64,0-4.18-.76-4.8-2.78L313.91,287a8,8,0,0,1-.51-2c0-1,.76-1.64,2.28-1.64,3.53,0,4.67.38,5.55,3.41l15.29,50.15a48.68,48.68,0,0,1,1.64,7.45,47,47,0,0,1,1.64-7.45Z" transform="translate(-52.66 -226.51)" style="fill:#fff"/><path d="M370.78,304.58c0-15.15,7.57-21.22,24.75-21.22h.25c17.31,0,24.89,6.07,24.89,21.22v27.66c0,15.16-7.58,21-24.89,21h-.25c-17.18,0-24.75-5.81-24.75-21ZM395.91,347c13.13,0,17.81-4.93,17.81-14.78V304.58c0-10.1-4.68-15-17.81-15h-.38c-13.14,0-17.81,4.93-17.81,15v27.66c0,9.85,4.67,14.78,17.81,14.78Z" transform="translate(-52.66 -226.51)" style="fill:#fff"/><path d="M494.33,261c0-.76,2.53-1.78,5.31-1.78,1.52,0,1.89,1.65,1.89,3.55v87.14c0,1.9-.76,3.29-2.14,3.29-1.78,0-4.68-.63-5.06-1.52l-49.89-78.06v76.29c0,1.77-.51,3.29-2,3.29-2.65,0-5.18-.89-5.18-1.77V261.13c0-.88,2.28-1.9,4.93-1.9a3,3,0,0,1,2.27,1.78l49.89,77.93Z" transform="translate(-52.66 -226.51)" style="fill:#fff"/><path d="M544.14,353.21c-21.09,0-26.27-9.73-26.27-32.21V305.59c0-16.67,8.59-22.23,23.87-22.23h1.9c14.52,0,22,6.19,22,17.94v3.16c0,15-5.69,21-40.93,21,0,15,4.67,21.85,20.72,21.85,6.7,0,13-1.39,17.3-2,1.26-.12,1.89-.12,2,3,.38,1.9,0,2.4-1.52,2.78a87.94,87.94,0,0,1-19.07,2.15M558.67,301c0-7.82-4.8-12-16.55-12-10.35,0-17.43,3.28-17.43,16.42v14.39c28.68,0,34-3.15,34-16Z" transform="translate(-52.66 -226.51)" style="fill:#fff"/><path d="M623.12,350.05a3.38,3.38,0,0,1,.63,1.9c0,1-1.27,1.26-1.9,1.26-2.14,0-4.92-.38-5.68-1.52l-16.93-28.92-16.79,28.92c-.89,1.27-3.54,1.52-5.56,1.52-.63,0-1.89-.25-1.89-1.39a3.26,3.26,0,0,1,.63-1.77l19.2-32-19-31.57a3.47,3.47,0,0,1-.5-1.9c0-1.13,1.26-1.25,2-1.25,2.28,0,4.68.24,5.44,1.64l16.41,28.42L615.92,285c.63-1.4,3.16-1.64,5.43-1.64.76,0,2,.12,2,1.25a3.38,3.38,0,0,1-.63,1.9l-19,31.57Z" transform="translate(-52.66 -226.51)" style="fill:#fff"/><path d="M675.31,284.88c0-.89,2.65-1.52,4.68-1.52,1.26,0,2.27.51,2.27,2.78v60c0,2.15-.89,2.66-2.41,3.16-4.29,1.77-13.88,3.92-23.36,3.92-17.81,0-21.85-7.71-21.85-21.6V284.88c0-.89,2.65-1.52,4.68-1.52,1.38,0,2.4.51,2.4,2.78v45.09c0,10.49,2.64,15.92,14.77,15.92,8.21,0,18.82-2.4,18.82-3.16Z" transform="translate(-52.66 -226.51)" style="fill:#fff"/><path d="M715.51,347c10.61,0,16.55-2.78,16.55-10.61,0-18.06-34.11-15.54-34.11-37.64,0-12.63,10.1-15.41,21.47-15.41a92.83,92.83,0,0,1,16.67,1.14c1.65.25,1.9.89,1.9,1.77,0,3.28-.88,4.54-2,4.42a129.42,129.42,0,0,0-15.16-1.14c-9.59,0-15.91,2.27-15.91,9.35,0,15.66,34.1,13.77,34.1,37.26,0,13-9.09,17-22.86,17a131.19,131.19,0,0,1-18.94-1.39c-1.4-.38-1.52-.76-1.4-2,.39-3.67,1.14-4.17,2.41-3.92a127.92,127.92,0,0,0,17.3,1.14" transform="translate(-52.66 -226.51)" style="fill:#fff"/><path d="M167.05,325c.66.76-.07-.07,0,0" transform="translate(-52.66 -226.51)" style="fill:#fff"/></g><path d="M198,361.05l0-.13c-.87-1.69-4.49-5.69-9.54-11.23-11.48-12.62-30.68-33.75-30.68-43.71a1.79,1.79,0,0,0,0-.27c0-.08,0-.12,0-.28,0-9.87,19.2-31,30.68-43.63,5.05-5.55,8.67-9.52,9.54-11.22l0-.11a3.83,3.83,0,0,0,.19-.74,5.28,5.28,0,0,0-5.17-6.09,6.91,6.91,0,0,0-4.32,1.64l-.76.46c-2.84,2.08-7,5.65-11.88,9.77-12.78,10.94-32.11,27.43-41.16,27.72-9.12-.29-28.47-16.78-41.25-27.72-4.85-4.12-9-7.69-11.94-9.79-.22-.16-.46-.31-.68-.44a7,7,0,0,0-4.31-1.64,5.21,5.21,0,0,0-3.92,1.76,5.32,5.32,0,0,0-1.27,4.33,3.31,3.31,0,0,0,.2.73l0,.12c.85,1.7,4.49,5.67,9.52,11.22,11.46,12.64,30.68,33.76,30.68,43.63l0,.32,0,.33c0,9.86-19.22,31-30.68,43.61-5,5.54-8.67,9.54-9.52,11.23l0,.13a2.76,2.76,0,0,0-.2.71,5.35,5.35,0,0,0,1.27,4.34,5.21,5.21,0,0,0,3.92,1.76A7,7,0,0,0,81,366.22l.74-.48c2.85-2.05,7-5.62,11.88-9.77,12.78-10.91,32.13-27.42,41.19-27.71,9.11.29,28.44,16.8,41.22,27.71,4.87,4.15,9,7.72,11.93,9.82l.71.43a6.91,6.91,0,0,0,4.32,1.64,5.11,5.11,0,0,0,3.89-1.76,5.16,5.16,0,0,0,1.28-4.35,3.13,3.13,0,0,0-.19-.7" transform="translate(-52.66 -226.51)" style="fill:#fff"/><path d="M159.08,227.73a4.58,4.58,0,0,0-3.89-1.16c-4.77,1.79-13,14.73-20.34,14.81-7.34-.08-15.62-13-20.37-14.81a4.54,4.54,0,0,0-3.88,1.16,4.36,4.36,0,0,0-.06,6.09c2.95,3.83,6.06,7.6,9.14,11.35s6,7.69,9.17,11.35a8.16,8.16,0,0,0,6,2.79h0a8.09,8.09,0,0,0,6-2.79c3.16-3.66,6.24-7.51,9.18-11.35s6.18-7.52,9.15-11.35a4.35,4.35,0,0,0-.06-6.09" transform="translate(-52.66 -226.51)" style="fill:#61a60e"/><path d="M53.9,282.18a4.11,4.11,0,0,0-1.17,3.76c1.79,4.62,15.09,12.71,15.21,19.81-.12,7.11-13.42,15.17-15.21,19.81a4.11,4.11,0,0,0,1.17,3.76,4.62,4.62,0,0,0,6.25.08c4-2.88,7.81-5.92,11.65-8.91s7.91-5.84,11.68-8.94a7.8,7.8,0,0,0,2.87-5.8v0a7.87,7.87,0,0,0-2.87-5.8c-3.77-3.09-7.74-6.06-11.68-8.94s-7.69-6-11.65-8.9a4.62,4.62,0,0,0-6.25.09" transform="translate(-52.66 -226.51)" style="fill:#61a60e"/><path d="M110.6,384.85a4.54,4.54,0,0,0,3.88,1.15c4.75-1.76,13-14.73,20.37-14.83,7.3.1,15.57,13.07,20.34,14.83a4.56,4.56,0,0,0,3.89-1.15,4.33,4.33,0,0,0,.06-6.07c-3-3.87-6.09-7.62-9.15-11.37s-6-7.69-9.18-11.37a8.18,8.18,0,0,0-6-2.77h0a8.24,8.24,0,0,0-6,2.77c-3.16,3.68-6.21,7.54-9.17,11.37s-6.18,7.5-9.15,11.37a4.34,4.34,0,0,0,.07,6.07" transform="translate(-52.66 -226.51)" style="fill:#61a60e"/><path d="M215.34,329.32a4.21,4.21,0,0,0,1.16-3.76c-1.8-4.64-15.1-12.7-15.22-19.81.12-7.11,13.42-15.19,15.22-19.81a4.21,4.21,0,0,0-1.16-3.76,4.63,4.63,0,0,0-6.26-.08c-4,2.89-7.83,5.93-11.68,8.9s-7.9,5.85-11.67,8.93a7.79,7.79,0,0,0-2.84,5.81h0a7.81,7.81,0,0,0,2.84,5.82c3.77,3.08,7.73,6.06,11.67,8.92s7.72,6,11.68,8.91a4.63,4.63,0,0,0,6.26-.08" transform="translate(-52.66 -226.51)" style="fill:#61a60e"/></svg>