<svg width="1497" height="172" viewBox="0 0 1497 172" fill="none" xmlns="http://www.w3.org/2000/svg">
<path d="M205.8 131.565V-1.16825e-05H249.9V171.5H205.8L44.1 39.69V171.5H3.65078e-07V-1.16825e-05H44.1L205.8 131.565ZM298.833 171.5V-1.16825e-05H531.583V29.4H342.933V71.05H507.083V100.45H342.933V142.1H531.583V171.5H298.833ZM774.162 132.3V-1.16825e-05H818.262V122.5C818.262 149.45 796.212 171.5 769.262 171.5H617.362C590.412 171.5 568.362 149.45 568.362 122.5V-1.16825e-05H612.462V132.3C612.462 137.69 616.872 142.1 622.262 142.1H764.362C769.752 142.1 774.162 137.69 774.162 132.3ZM1063.19 -1.16825e-05C1090.14 -1.16825e-05 1112.19 22.05 1112.19 49V63.7C1112.19 88.2 1094.3 111.965 1070.54 111.965L906.385 112.7V171.5H862.285V-1.16825e-05H1063.19ZM1018.84 110.495L1069.07 109.515L1112.19 171.5H1061.47L1018.84 110.495ZM1068.09 73.5V39.2C1068.09 33.81 1063.68 29.4 1058.29 29.4H906.385V83.3H1058.29C1063.68 83.3 1068.09 78.89 1068.09 73.5ZM1153.94 171.5V-1.16825e-05H1198.04V171.5H1153.94ZM1496.91 -1.16825e-05L1429.54 85.75L1496.91 171.5H1443.99L1387.64 100.45H1291.11V171.5H1247.01V-1.16825e-05H1291.11V71.05H1387.64L1443.99 -1.16825e-05H1496.91Z" fill="black"/>
</svg>
